<?xml version="1.0" standalone="no"?>
<!DOCTYPE svg PUBLIC "-//W3C//DTD SVG 20010904//EN"
 "http://www.w3.org/TR/2001/REC-SVG-20010904/DTD/svg10.dtd">
<svg version="1.0" xmlns="http://www.w3.org/2000/svg"
 width="400.000000pt" height="147.000000pt" viewBox="0 0 400.000000 147.000000"
 preserveAspectRatio="xMidYMid meet">

<g transform="translate(0.000000,147.000000) scale(0.100000,-0.100000)"
fill="#000000" stroke="none">
<path d="M369 1211 c-57 -58 -30 -162 46 -177 l35 -6 0 -287 c0 -266 2 -289
21 -331 45 -99 100 -132 271 -160 260 -43 517 -45 772 -5 195 30 240 54 298
160 21 37 22 56 26 271 l4 232 41 18 c60 27 186 25 250 -4 l47 -21 0 -223 c0
-203 2 -227 21 -268 47 -105 99 -133 307 -166 225 -36 500 -36 725 0 87 14
174 33 193 42 48 23 93 70 118 124 19 42 21 66 24 331 l3 286 38 11 c43 13 65
46 65 97 0 43 -20 80 -51 94 -17 8 -473 11 -1624 11 l-1601 0 -29 -29z m1871
-93 c0 -29 3 -63 6 -75 l6 -23 -246 0 -246 0 0 75 0 75 240 0 240 0 0 -52z
m-661 -36 c66 -35 71 -58 71 -319 0 -246 -4 -269 -48 -316 -36 -38 -56 -48
-127 -63 -130 -28 -324 -38 -466 -26 -240 22 -303 43 -351 120 -22 36 -23 43
-23 282 0 273 2 280 68 320 30 19 53 20 437 20 373 0 408 -1 439 -18z m1758
-25 l38 -37 3 -233 c2 -127 0 -247 -3 -265 -7 -39 -64 -105 -103 -120 -98 -38
-360 -59 -534 -44 -153 14 -261 35 -294 57 -13 9 -36 34 -52 57 l-27 42 0 246
c0 273 1 280 68 321 31 18 49 19 449 17 l418 -3 37 -38z"/>
<path d="M1078 1048 c-25 -20 -27 -58 -3 -72 11 -6 21 -11 23 -12 1 -1 -29
-123 -68 -271 -39 -149 -67 -278 -64 -287 7 -20 67 -22 82 -3 6 7 25 70 43
140 25 101 35 127 49 127 14 0 19 -17 29 -102 7 -57 17 -120 22 -140 9 -36 12
-38 48 -38 26 0 41 5 45 16 3 8 -3 75 -14 147 -17 105 -18 132 -8 136 7 2 32
23 54 46 95 98 98 262 7 304 -42 20 -224 26 -245 9z m186 -88 c22 -8 26 -16
26 -52 0 -53 -33 -122 -66 -136 -32 -15 -74 -15 -74 -1 0 10 37 162 45 187 5
14 34 16 69 2z"/>
<path d="M2851 1063 c-16 -14 -37 -87 -96 -322 -42 -167 -75 -314 -73 -325 4
-26 58 -35 79 -13 8 7 27 66 43 131 16 64 32 113 36 109 4 -4 19 -53 35 -108
42 -148 41 -147 89 -143 30 2 42 8 44 21 3 13 -61 249 -85 313 -2 6 52 78 121
160 69 82 126 154 126 161 0 19 -38 35 -69 28 -21 -4 -54 -38 -122 -121 -51
-62 -94 -114 -95 -114 -1 0 10 48 25 106 25 104 25 106 6 120 -25 18 -38 18
-64 -3z"/>
</g>
</svg>
